<svg width="23" height="22" viewBox="0 0 23 22" fill="none" xmlns="http://www.w3.org/2000/svg">
<path d="M4.43732 1.88248C4.52126 0.479747 5.98758 -0.40131 7.26553 0.183119L11.4473 2.0955C11.8656 2.28682 12.3371 2.32808 12.7824 2.21231L17.2327 1.05513C18.5927 0.701495 19.8837 1.82379 19.7228 3.21979L19.1963 7.78782C19.1436 8.24482 19.2501 8.70601 19.4977 9.09367L21.9735 12.9686C22.7301 14.1527 22.0617 15.7274 20.6843 16.0058L16.1771 16.9166C15.7262 17.0077 15.3205 17.2515 15.0283 17.6068L12.1082 21.1588C11.2157 22.2443 9.51159 22.0952 8.82122 20.8712L6.56219 16.8661C6.33619 16.4654 5.97897 16.1549 5.55074 15.9869L1.2702 14.3072C-0.037943 13.7939 -0.422759 12.1271 0.527973 11.0923L3.63899 7.70621C3.95022 7.36745 4.13517 6.93176 4.16265 6.47255L4.43732 1.88248Z" fill="#FBDD75"/>
</svg>
